# xmcd CD database file
# Copyright (C) 1997 Ti Kan
# 
# Track frame offsets:
#     150
#     10113
#     24880
#     40483
#     56603
#     72375
#     87283
#     100503
#     116770
#     132595
#     150728
#     169780
#     179918
#     193555
#     208430
# 
# Disc length: 3040 seconds
# 
# Revision: 1
# Processed by: cddbd v1.4b41PL1 Copyright (c) Steve Scherf et al.
# Submitted via: DiscPlay 4.0.3
# 
DISCID=d50bde0f
DTITLE=Ray Charles - Modern Sounds
DYEAR=1900
DGENRE=
TTITLE0=Bye Bye Love
TTITLE1=You Don't Know Me
TTITLE2=Half As Much
TTITLE3=I Love You So Much It Hurts
TTITLE4=Just A Little Lovin'
TTITLE5=Born To Lose
TTITLE6=Worried Mind
TTITLE7=It Makes No Difference Now
TTITLE8=You Win Again
TTITLE9=Careless Love
TTITLE10=I Can't Stop Loving You
TTITLE11=Hey, Good Lookin'
TTITLE12=You Are My Sunshine
TTITLE13=Here We Go Again
TTITLE14=That Lucky Old Sun
EXTD=
EXTT0=
EXTT1=
EXTT2=
EXTT3=
EXTT4=
EXTT5=
EXTT6=
EXTT7=
EXTT8=
EXTT9=
EXTT10=
EXTT11=
EXTT12=
EXTT13=
EXTT14=
PLAYORDER=
